# Blender 3.4.0
# www.blender.org
mtllib ruine2.mtl
o ruine2
v 257.480652 0.006078 -230.166611
v 242.069580 0.006085 -248.861755
v 181.270950 0.006143 -287.594757
v 157.814392 0.006146 -293.661041
v 133.697632 0.006146 -295.983246
v 242.069580 97.376518 -248.861664
v 223.923676 97.376541 -264.915802
v 203.489761 97.376556 -277.933655
v 181.270950 97.376564 -287.594666
v 85.860558 109.663361 -289.260040
v 63.318138 109.663353 -280.380341
v 42.442337 97.376564 -268.083557
v 23.747192 97.376541 -252.672470
v 7.693047 97.376534 -234.526550
v -5.324783 97.376511 -214.092606
v 248.428192 0.006037 -198.878082
v 248.428207 129.889969 -198.877960
v 224.982941 0.006079 -232.361389
v 238.023163 97.376488 -216.542221
v 224.982941 97.376503 -232.361298
v 173.537659 0.006121 -265.135651
v 153.689682 0.006130 -270.268677
v 133.283081 0.006131 -272.233612
v 153.689682 97.376549 -270.268555
v 133.283096 97.376564 -272.233521
v 92.805336 109.663338 -266.544708
v 73.730858 109.663338 -259.031097
v 56.066628 97.376541 -248.626068
v 109.514549 109.663368 -294.503998
v 42.442337 109.663345 -268.083527
v 56.066628 109.663315 -248.626068
v 112.820366 109.663338 -270.981934
v 269.777466 129.889969 -209.290695
v 257.480682 129.889984 -230.166489
v 238.023163 129.889969 -216.542191
v 109.514542 29.762749 -294.504089
v 133.283096 29.762722 -272.233612
v 92.805336 29.762724 -266.544800
v 73.730850 29.762718 -259.031189
v 56.066643 16.360703 -248.626129
v 40.247589 29.762699 -235.585892
v 26.663223 29.762686 -220.231583
v 15.648071 29.762669 -202.941223
v -5.324768 29.762684 -214.092682
v 7.693047 29.762711 -234.526611
v 23.747192 29.762720 -252.672546
v 42.442352 16.360722 -268.083649
v 63.318138 29.762741 -280.380432
v 85.860565 29.762749 -289.260132
v 112.820358 97.376556 -270.981964
v 40.247574 97.376534 -235.585846
v 26.663223 97.376518 -220.231506
v 15.648064 97.376495 -202.941162
v 223.923676 21.982939 -264.915894
v 209.628616 21.982922 -245.945709
v 192.338287 21.982937 -256.960876
v 203.489761 21.982958 -277.933716
v 209.628632 97.376518 -245.945633
v 192.338287 97.376526 -256.960785
v 40.247589 16.360699 -235.585907
v 23.747192 16.360720 -252.672546
v 63.318130 16.360733 -280.380432
v 73.730858 16.360714 -259.031189
v 203.489777 149.563309 -277.933594
v 181.270966 149.563324 -287.594604
v 157.814407 149.563324 -293.660889
v 153.689697 149.563309 -270.268524
v 173.537659 149.563293 -265.135468
v 192.338303 149.563278 -256.960724
v 269.777466 43.679829 -209.290771
v 257.480652 43.679855 -230.166565
v 112.820358 29.762726 -270.982025
v 40.247597 43.679878 -235.585892
v 15.648079 43.679852 -202.941208
v 23.747200 43.679905 -252.672531
v 85.860565 43.679932 -289.260101
v 223.923676 43.679886 -264.915863
v 209.628632 43.679874 -245.945694
v 173.537659 43.679893 -265.135620
v 181.270950 43.679916 -287.594727
v 224.982941 43.679852 -232.361359
v 242.069580 43.679874 -248.861725
v 248.428192 43.679821 -198.878052
v 238.023163 0.006058 -216.542313
v 92.805336 43.679901 -266.544800
v 73.730850 43.679897 -259.031158
v 56.066628 43.679893 -248.626129
v 26.663231 43.679863 -220.231567
v -5.324753 43.679867 -214.092667
v 7.693062 43.679890 -234.526596
v 42.442352 43.679916 -268.083618
v 63.318138 43.679928 -280.380432
v 192.338287 43.679882 -256.960846
v 203.489761 43.679901 -277.933716
v 40.247574 83.695038 -235.585846
v 26.663231 83.695023 -220.231506
v 209.628632 83.695030 -245.945648
v 257.480652 97.376503 -230.166504
v 242.069580 83.695038 -248.861679
v 133.697647 97.376579 -295.983124
v 63.318130 83.695084 -280.380402
v 85.860565 83.695091 -289.260071
v 181.270950 83.695084 -287.594696
v 269.777466 83.694992 -209.290726
v 92.805336 83.695061 -266.544769
v 73.730850 83.695061 -259.031128
v 56.066628 83.695045 -248.626083
v 15.648064 83.695000 -202.941162
v 192.338287 83.695038 -256.960815
v 173.537659 83.695053 -265.135559
v 224.982941 83.695007 -232.361298
v 157.814392 97.376572 -293.660919
v 248.428192 83.694984 -198.878006
v 109.514549 97.376587 -294.503998
v -5.324753 83.695030 -214.092621
v 7.693047 83.695045 -234.526550
v 23.747192 83.695061 -252.672470
v 42.442345 83.695084 -268.083588
v 223.923676 83.695053 -264.915833
v 203.489761 83.695061 -277.933685
v 256.844910 83.694969 -181.621155
v 256.844910 43.679806 -181.621201
v 278.194214 43.679817 -192.033936
v 278.194214 83.694969 -192.033890
v -14.338608 83.695015 -197.140015
v -14.338608 43.679852 -197.140060
v 6.634232 43.679836 -185.988617
v 6.634216 83.694992 -185.988571
v 157.814392 21.973381 -293.661011
v 133.697647 29.762749 -295.983215
v 181.270950 21.978167 -287.594727
v 173.537659 21.978148 -265.135620
v 224.982941 21.978113 -232.361374
v 242.069580 21.978119 -248.861755
v 269.777466 0.006048 -209.290817
v 153.689682 30.143288 -270.268646
v 238.023163 43.228477 -216.542282
vn 0.8192 -0.0000 -0.5736
vn 0.7716 -0.0000 -0.6361
vn 0.7373 -0.0000 -0.6756
vn 0.1736 -0.0000 -0.9848
vn 0.2504 -0.0000 -0.9681
vn 0.3007 -0.0000 -0.9537
vn 0.0958 -0.0000 -0.9954
vn 0.0437 -0.0000 -0.9990
vn -0.0000 -1.0000 -0.0000
vn 0.0002 -1.0000 0.0001
vn 0.0001 -1.0000 -0.0000
vn -0.0001 -1.0000 -0.0001
vn -0.0002 -1.0000 -0.0001
vn -0.0000 1.0000 -0.0000
vn -0.7716 -0.0000 0.6361
vn -0.8192 -0.0000 0.5736
vn -0.7373 -0.0000 0.6756
vn -0.3007 -0.0000 0.9537
vn -0.1736 -0.0000 0.9848
vn -0.2504 -0.0000 0.9681
vn -0.0437 -0.0000 0.9990
vn -0.0958 -0.0000 0.9954
vn -0.1651 -0.0000 -0.9863
vn -0.2924 -0.0000 -0.9563
vn -0.2164 -0.0000 -0.9763
vn -0.4384 -0.0000 -0.8988
vn -0.5519 -0.0000 -0.8339
vn -0.5075 -0.0000 -0.8616
vn 0.5519 -0.0000 0.8339
vn 0.4384 -0.0000 0.8988
vn 0.5075 -0.0000 0.8616
vn 0.2924 -0.0000 0.9563
vn 0.1651 -0.0000 0.9863
vn 0.2164 -0.0000 0.9763
vn 0.9903 -0.0000 -0.1392
vn 0.8339 -0.0000 -0.5519
vn 0.8616 -0.0000 -0.5075
vn -0.5736 -0.0000 -0.8192
vn -0.8339 -0.0000 0.5519
vn -0.8616 -0.0000 0.5075
vn -0.9998 -0.0000 -0.0175
vn 0.1392 -0.0000 0.9903
vn 0.2672 -0.0000 0.9636
vn 0.4618 -0.0000 0.8870
vn 0.5736 -0.0000 0.8192
vn 0.6756 -0.0000 0.7373
vn 0.6947 -0.0000 0.7193
vn 0.7986 -0.0000 0.6018
vn 0.8141 -0.0000 0.5807
vn 0.8434 -0.0000 0.5373
vn 0.8572 -0.0000 0.5150
vn -0.8141 -0.0000 -0.5807
vn -0.8434 -0.0000 -0.5373
vn -0.8572 -0.0000 -0.5150
vn -0.7986 -0.0000 -0.6018
vn -0.6947 -0.0000 -0.7193
vn -0.6756 -0.0000 -0.7373
vn -0.4618 -0.0000 -0.8870
vn -0.2672 -0.0000 -0.9636
vn -0.1392 -0.0000 -0.9903
vn 0.9455 -0.0000 0.3256
vn 0.6018 -0.0000 -0.7986
vn -0.6018 -0.0000 0.7986
vn -0.4695 -0.0000 0.8830
vn -0.4695 -0.0000 0.8829
vn 0.4695 -0.0000 -0.8829
vn -0.7193 -0.0000 0.6947
vn -0.6361 -0.0000 -0.7716
vn 0.8988 -0.0000 -0.4384
vn 0.6361 -0.0000 0.7716
vn 0.3987 -0.0000 -0.9171
vn 0.3256 -0.0000 -0.9455
vn 0.4462 -0.0000 -0.8950
vn 0.1994 -0.0000 -0.9799
vn -0.9848 -0.0000 -0.1736
vn -0.1994 -0.0000 0.9799
vn -0.3256 -0.0000 0.9455
vn -0.4462 -0.0000 0.8950
vn -0.3987 -0.0000 0.9171
vn 0.8829 -0.0000 0.4695
vn 0.8746 -0.0000 -0.4848
vn 0.0175 -0.0000 -0.9998
vn -0.8746 -0.0000 0.4848
vn -0.0175 -0.0000 0.9998
vn 0.7193 -0.0000 -0.6947
vn -0.9563 -0.0000 0.2924
vn -0.8988 -0.0000 0.4384
vn -0.8829 -0.0000 -0.4695
vt 0.874533 0.768419
vt 0.922904 0.986579
vt 0.881204 0.986579
vt 0.835249 0.768419
vt 0.253202 0.769079
vt 0.756127 0.986432
vt 0.361875 0.752262
vt 0.873645 0.897829
vt 0.714431 0.986425
vt 0.397884 0.752262
vt 0.672735 0.986411
vt 0.437168 0.752262
vt 0.784133 0.523008
vt 0.543802 0.738546
vt 0.881225 0.818940
vt 0.582818 0.738546
vt 0.839543 0.818940
vt 0.618583 0.738546
vt 0.167455 0.780047
vt 0.797850 0.818940
vt 0.756153 0.818940
vt 0.471029 0.664235
vt 0.589359 0.797769
vt 0.432014 0.664235
vt 0.547651 0.797769
vt 0.490177 0.501402
vt 0.500805 0.356696
vt 0.506002 0.819024
vt 0.451162 0.501402
vt 0.464324 0.819097
vt 0.412147 0.501402
vt 0.422641 0.819100
vt 0.376382 0.501402
vt 0.111212 0.862719
vt 0.380945 0.819101
vt 0.910543 0.810142
vt 0.115358 0.989096
vt 0.845170 0.533992
vt 0.213872 0.380596
vt 0.290929 0.988758
vt 0.845171 0.757578
vt 0.835249 0.810142
vt 0.774589 0.533993
vt 0.218777 0.769079
vt 0.504788 0.779984
vt 0.765385 0.859725
vt 0.809881 0.701609
vt 0.543802 0.779984
vt 0.774599 0.701610
vt 0.361875 0.710539
vt 0.668749 0.534034
vt 0.873645 0.858051
vt 0.397884 0.710539
vt 0.633459 0.534033
vt 0.437168 0.710539
vt 0.598197 0.534039
vt 0.784133 0.482132
vt 0.760041 0.623389
vt 0.010006 0.947918
vt 0.633461 0.701651
vt 0.722109 0.623389
vt 0.598197 0.701652
vt 0.471029 0.622797
vt 0.527623 0.722763
vt 0.432014 0.622797
vt 0.492329 0.722763
vt 0.490177 0.459965
vt 0.500805 0.318678
vt 0.457069 0.701556
vt 0.510044 0.664235
vt 0.631061 0.797769
vt 0.970964 0.977580
vt 0.396250 0.664235
vt 0.505953 0.797769
vt 0.524812 0.356696
vt 0.396250 0.622797
vt 0.524812 0.318678
vt 0.457038 0.722763
vt 0.510044 0.622797
vt 0.562915 0.722763
vt 0.970964 0.936837
vt 0.254752 0.380596
vt 0.290929 0.950708
vt 0.964606 0.763043
vt 0.254752 0.419085
vt 0.922907 0.763043
vt 0.825966 0.895979
vt 0.213872 0.419085
vt 0.825966 0.859725
vt 0.809880 0.757578
vt 0.331967 0.899650
vt 0.631098 0.935208
vt 0.290529 0.935414
vt 0.835348 0.482132
vt 0.598197 0.585377
vt 0.290529 0.860634
vt 0.527658 0.585377
vt 0.290529 0.821619
vt 0.488535 0.993158
vt 0.492383 0.585377
vt 0.354975 0.991110
vt 0.457126 0.562095
vt 0.210687 0.680505
vt 0.895244 0.545319
vt 0.421808 0.585125
vt 0.210687 0.646655
vt 0.386514 0.585125
vt 0.210687 0.609729
vt 0.351223 0.585124
vt 0.022675 0.851015
vt 0.249906 0.609729
vt 0.380947 0.935470
vt 0.022675 0.889986
vt 0.249906 0.646655
vt 0.422645 0.935469
vt 0.249906 0.680505
vt 0.895244 0.590473
vt 0.464352 0.935469
vt 0.354975 0.949388
vt 0.506100 0.958455
vt 0.331967 0.821619
vt 0.547744 0.935297
vt 0.527819 0.993158
vt 0.331967 0.860634
vt 0.589424 0.935227
vt 0.684177 0.623389
vt 0.992246 0.936837
vt 0.562922 0.701650
vt 0.451162 0.459965
vt 0.421793 0.701520
vt 0.412147 0.459965
vt 0.386512 0.701519
vt 0.376382 0.459965
vt 0.072222 0.862719
vt 0.351222 0.701518
vt 0.454624 0.509755
vt 0.839498 0.948673
vt 0.454624 0.551193
vt 0.739303 0.571841
vt 0.415609 0.551193
vt 0.704021 0.571841
vt 0.415609 0.509755
vt 0.797806 0.948673
vt 0.582818 0.779984
vt 0.739317 0.701632
vt 0.618583 0.779984
vt 0.207530 0.780047
vt 0.704030 0.701653
vt 0.315692 0.991110
vt 0.859827 0.545319
vt 0.421835 0.562095
vt 0.315692 0.949388
vt 0.859827 0.590473
vt 0.464400 0.958536
vt 0.390985 0.949388
vt 0.547798 0.958362
vt 0.527819 0.968497
vt 0.390985 0.991110
vt 0.488535 0.968497
vt 0.492416 0.562095
vt 0.463482 0.440406
vt 0.797915 0.729044
vt 0.167455 0.680328
vt 0.425550 0.440406
vt 0.756215 0.729044
vt 0.387619 0.440406
vt 0.714515 0.729044
vt 0.100249 0.988368
vt 0.387619 0.398969
vt 0.100249 0.947918
vt 0.633442 0.791487
vt 0.425550 0.398969
vt 0.668734 0.791491
vt 0.463482 0.398969
vt 0.704026 0.791492
vt 0.207530 0.680328
vt 0.193300 0.950996
vt 0.450931 0.959344
vt 0.964604 0.911416
vt 0.922907 0.911415
vt 0.290529 0.899650
vt 0.562928 0.585377
vt 0.421796 0.609131
vt 0.274963 0.824402
vt 0.048535 0.851015
vt 0.866888 0.958047
vt 0.351223 0.609082
vt 0.464330 0.911418
vt 0.234358 0.824402
vt 0.589398 0.911418
vt 0.234358 0.938036
vt 0.086043 0.899444
vt 0.839539 0.911341
vt 0.525746 0.902560
vt 0.739316 0.609075
vt 0.525746 0.852835
vt 0.436011 0.852835
vt 0.687167 0.557685
vt 0.668750 0.609075
vt 0.436011 0.902560
vt 0.687167 0.518232
vt 0.756146 0.911341
vt 0.572564 0.852835
vt 0.583003 0.570787
vt 0.774594 0.609075
vt 0.572564 0.902560
vt 0.583003 0.537948
vt 0.881216 0.911341
vt 0.193300 0.989096
vt 0.410052 0.959344
vt 0.845170 0.609075
vt 0.874533 0.810142
vt 0.809880 0.533993
vt 0.527641 0.609131
vt 0.274963 0.938036
vt 0.086043 0.939184
vt 0.492354 0.609131
vt 0.274963 0.900866
vt 0.457072 0.609131
vt 0.274963 0.862634
vt 0.386514 0.609131
vt 0.203554 0.484243
vt 0.274963 0.782984
vt 0.048535 0.889986
vt 0.380947 0.911517
vt 0.826008 0.958047
vt 0.422645 0.911418
vt 0.168259 0.484243
vt 0.234358 0.782984
vt 0.506008 0.911418
vt 0.234358 0.862634
vt 0.547698 0.911418
vt 0.234358 0.900866
vt 0.704035 0.609075
vt 0.478927 0.852835
vt 0.797849 0.911341
vt 0.478927 0.902560
vt 0.421804 0.678016
vt 0.361970 0.803063
vt 0.386512 0.678016
vt 0.322588 0.803063
vt 0.203554 0.409792
vt 0.739303 0.678080
vt 0.947480 0.749333
vt 0.504788 0.738546
vt 0.765385 0.895979
vt 0.922909 0.818940
vt 0.881212 0.842470
vt 0.983244 0.707895
vt 0.506096 0.537948
vt 0.722109 0.664827
vt 0.672768 0.818836
vt 0.547732 0.842550
vt 0.438605 0.762367
vt 0.589403 0.842550
vt 0.016037 0.899444
vt 0.477277 0.762367
vt 0.756140 0.842470
vt 0.757460 0.518233
vt 0.869449 0.707895
vt 0.208597 0.950708
vt 0.964605 0.842547
vt 0.815262 0.990613
vt 0.527647 0.678016
vt 0.016037 0.939184
vt 0.477277 0.803063
vt 0.492376 0.678016
vt 0.438605 0.803063
vt 0.457096 0.678016
vt 0.400288 0.803063
vt 0.072222 0.888154
vt 0.351223 0.677966
vt 0.110113 0.383679
vt 0.704021 0.678100
vt 0.908465 0.749333
vt 0.668744 0.678103
vt 0.757460 0.557685
vt 0.869449 0.749333
vt 0.774592 0.678058
vt 0.983244 0.749333
vt 0.506096 0.570787
vt 0.760041 0.664827
vt 0.010006 0.988368
vt 0.714455 0.818839
vt 0.208597 0.988758
vt 0.845170 0.678057
vt 0.774382 0.990613
vt 0.684177 0.664827
vt 0.992246 0.977580
vt 0.631079 0.818839
vt 0.111212 0.888154
vt 0.380947 0.842649
vt 0.150992 0.383679
vt 0.422642 0.842550
vt 0.322588 0.762367
vt 0.168259 0.409792
vt 0.464344 0.842550
vt 0.361970 0.762367
vt 0.506047 0.842550
vt 0.400288 0.762367
vt 0.839513 0.842470
vt 0.947480 0.707895
vt 0.797823 0.842470
vt 0.908465 0.707895
vt 0.573589 0.953521
vt 0.878221 0.678057
vt 0.774382 0.957569
vt 0.645153 0.953521
vt 0.878221 0.609075
vt 0.410052 0.992387
vt 0.645153 0.991702
vt 0.450931 0.992387
vt 0.997648 0.911416
vt 0.573589 0.991702
vt 0.997648 0.842548
vt 0.815262 0.957569
vt 0.108747 0.901377
vt 0.347903 0.842649
vt 0.150992 0.416722
vt 0.180753 0.901377
vt 0.347903 0.911518
vt 0.826008 0.991090
vt 0.180753 0.939116
vt 0.866888 0.991090
vt 0.318173 0.609082
vt 0.108747 0.939116
vt 0.318173 0.677965
vt 0.110113 0.416722
vt 0.714442 0.948673
vt 0.331967 0.935414
vt 0.835348 0.523008
vt 0.672761 0.935201
vt 0.376593 0.509755
vt 0.834730 0.897829
vt 0.756127 0.948673
vt 0.376593 0.551193
vt 0.834730 0.858051
vt 0.668744 0.571841
vt 0.490388 0.551193
vt 0.218777 0.724811
vt 0.774590 0.571841
vt 0.490388 0.509755
vt 0.253202 0.724811
vt 0.881203 0.948673
vt 0.910543 0.768419
vt 0.115358 0.950996
vt 0.964603 0.986580
vt 0.633463 0.585377
vt 0.809881 0.609075
s 1
usemtl M_AncientRuins_Props
f 1/2/1 2/3/2 134/344/3
f 129/329/4 3/6/5 4/9/4
f 3/6/5 129/329/4 131/335/6
f 129/329/4 5/11/7 130/332/8
f 5/11/7 129/329/4 4/9/4
f 42/106/9 44/111/9 45/114/9
f 44/111/9 42/106/9 43/108/9
f 46/116/9 42/106/9 45/114/9
f 42/106/9 46/116/9 41/103/9
f 47/119/9 60/149/9 61/152/9
f 60/149/9 47/119/9 40/101/9
f 63/158/9 47/119/9 62/155/9
f 47/119/9 63/158/9 40/101/9
f 39/98/9 49/124/9 38/96/9
f 49/124/9 39/98/9 48/121/9
f 38/96/9 36/91/9 72/181/9
f 36/91/9 38/96/9 49/124/9
f 37/93/9 72/181/9 36/91/9
f 37/93/9 36/91/9 130/330/9
f 23/55/9 4/10/9 22/53/9
f 4/10/9 23/55/9 5/12/9
f 22/53/9 4/10/9 21/50/9
f 4/10/9 3/7/9 21/50/9
f 132/336/10 131/333/10 56/140/11
f 131/333/10 57/142/11 56/140/11
f 56/140/11 57/142/11 55/138/12
f 57/142/11 54/136/12 55/138/12
f 54/136/12 134/342/12 133/339/13
f 54/136/12 133/339/13 55/138/12
f 1/1/9 18/42/9 2/4/9
f 18/42/9 1/1/9 84/212/9
f 135/345/9 16/36/9 1/1/9
f 1/1/9 16/36/9 84/212/9
f 17/39/14 34/85/14 35/88/14
f 34/85/14 17/39/14 33/82/14
f 20/48/14 19/45/14 98/245/14
f 98/245/14 6/14/14 20/48/14
f 20/48/14 7/16/14 58/144/14
f 7/16/14 20/48/14 6/14/14
f 58/144/14 7/16/14 59/146/14
f 7/16/14 8/18/14 59/146/14
f 69/174/14 64/161/14 68/172/14
f 64/161/14 65/164/14 68/172/14
f 66/166/14 68/172/14 65/164/14
f 68/172/14 66/166/14 67/169/14
f 100/251/14 25/61/14 112/282/14
f 112/282/14 25/61/14 24/58/14
f 114/288/14 25/61/14 100/251/14
f 25/61/14 114/288/14 50/126/14
f 26/63/14 29/70/14 10/22/14
f 29/70/14 26/63/14 32/79/14
f 27/65/14 10/22/14 11/24/14
f 10/22/14 27/65/14 26/63/14
f 30/73/14 27/65/14 11/24/14
f 27/65/14 30/73/14 31/76/14
f 12/26/14 51/129/14 28/67/14
f 51/129/14 12/26/14 13/29/14
f 51/129/14 14/31/14 52/131/14
f 14/31/14 51/129/14 13/29/14
f 52/131/14 15/33/14 53/133/14
f 15/33/14 52/131/14 14/31/14
f 18/43/15 84/213/16 133/341/17
f 132/338/18 22/54/19 21/51/20
f 22/54/19 132/338/18 136/348/19
f 37/95/21 22/54/19 136/348/19
f 22/54/19 37/95/21 23/56/22
f 114/290/23 10/23/24 29/71/25
f 11/25/26 12/28/27 30/74/28
f 31/77/16 30/75/16 12/27/16
f 31/77/16 12/27/16 28/68/16
f 28/69/29 27/66/30 31/78/31
f 26/64/32 50/128/33 32/80/34
f 29/72/35 32/81/35 50/127/35
f 29/72/35 50/127/35 114/289/35
f 98/247/36 34/86/37 33/84/37
f 35/89/38 34/87/38 98/246/38
f 35/89/38 98/246/38 19/46/38
f 19/47/39 17/41/40 35/90/40
f 37/94/41 5/13/41 23/57/41
f 5/13/41 37/94/41 130/331/41
f 38/97/32 72/182/42 85/214/43
f 86/217/30 38/97/32 85/214/43
f 38/97/32 86/217/30 39/100/44
f 87/219/45 39/100/44 86/217/30
f 87/219/45 40/102/45 39/100/44
f 87/219/45 41/105/46 40/102/45
f 41/105/46 87/219/45 73/183/47
f 73/183/47 42/107/48 41/105/46
f 42/107/48 73/183/47 88/221/49
f 88/221/49 43/109/50 42/107/48
f 43/109/50 88/221/49 74/187/51
f 90/227/52 44/112/53 89/225/54
f 44/112/53 90/227/52 45/115/55
f 75/188/56 45/115/55 90/227/52
f 45/115/55 75/188/56 46/118/57
f 91/230/38 46/118/57 75/188/56
f 91/230/38 47/120/38 46/118/57
f 91/230/38 48/122/58 47/120/38
f 48/122/58 91/230/38 92/232/26
f 92/232/26 49/125/24 48/122/58
f 49/125/24 92/232/26 76/190/59
f 36/92/60 49/125/24 76/190/59
f 134/343/56 18/44/56 133/340/56
f 18/44/56 134/343/56 2/5/56
f 131/334/61 21/52/61 3/8/61
f 21/52/61 131/334/61 132/337/61
f 82/208/3 54/137/62 77/193/62
f 54/137/62 82/208/3 134/344/3
f 81/205/17 55/139/63 133/341/17
f 55/139/63 81/205/17 78/195/63
f 78/195/63 56/141/64 55/139/63
f 56/141/64 78/195/63 93/234/65
f 79/199/18 56/141/64 93/234/65
f 56/141/64 79/199/18 132/338/18
f 80/202/6 57/143/66 131/335/6
f 57/143/66 80/202/6 94/236/66
f 77/193/62 57/143/66 94/236/66
f 57/143/66 77/193/62 54/137/62
f 41/104/67 61/153/67 60/150/67
f 61/153/67 41/104/67 46/117/67
f 46/118/57 47/120/38 61/154/68
f 47/120/38 48/122/58 62/156/28
f 48/123/69 39/99/69 62/157/69
f 39/99/69 63/159/69 62/157/69
f 39/100/44 40/102/45 63/160/31
f 40/102/45 41/105/46 60/151/70
f 64/162/71 9/21/72 65/165/72
f 9/21/72 64/162/71 8/20/73
f 65/165/72 112/284/74 66/167/5
f 112/284/74 65/165/72 9/21/72
f 66/168/75 24/59/75 67/170/75
f 24/59/75 66/168/75 112/283/75
f 67/171/20 24/60/76 68/173/77
f 68/173/77 24/60/76 110/276/18
f 68/173/77 59/148/78 69/175/79
f 59/148/78 68/173/77 110/276/18
f 69/176/80 59/147/80 64/163/80
f 64/163/80 59/147/80 8/19/80
f 53/134/65 15/34/65 115/291/65
f 53/134/65 115/291/65 108/271/65
f 17/40/30 104/261/30 33/83/30
f 104/261/30 17/40/30 113/285/30
f 104/262/81 71/180/1 98/247/36
f 71/180/1 104/262/81 70/179/81
f 98/247/36 71/180/1 99/248/3
f 99/248/3 71/180/1 82/208/3
f 80/202/6 112/284/74 103/258/6
f 129/329/4 112/284/74 80/202/6
f 112/284/74 130/332/8 100/252/82
f 130/332/8 112/284/74 129/329/4
f 19/47/39 137/349/16 113/286/83
f 113/286/83 137/349/16 83/211/83
f 137/349/16 111/279/17 81/205/17
f 111/279/17 137/349/16 19/47/39
f 24/60/76 136/348/19 110/276/18
f 110/276/18 136/348/19 79/199/18
f 25/62/84 136/348/19 24/60/76
f 136/348/19 25/62/84 37/95/21
f 100/252/82 36/92/60 114/290/23
f 36/92/60 100/252/82 130/332/8
f 50/128/33 37/95/21 25/62/84
f 37/95/21 50/128/33 72/182/42
f 85/214/43 50/128/33 105/264/43
f 72/182/42 50/128/33 85/214/43
f 74/187/51 96/240/49 108/272/51
f 96/240/49 74/187/51 88/221/49
f 116/294/52 90/227/52 115/292/54
f 115/292/54 90/227/52 89/225/54
f 114/290/23 76/190/59 102/255/59
f 76/190/59 114/290/23 36/92/60
f 89/224/65 43/110/65 74/185/65
f 43/110/65 89/224/65 44/113/65
f 83/209/30 135/346/30 70/177/30
f 135/346/30 83/209/30 16/37/30
f 125/317/65 126/320/65 128/326/65
f 128/326/65 126/320/65 127/323/65
f 121/305/30 123/311/30 124/314/30
f 123/311/30 121/305/30 122/308/30
f 98/247/36 33/84/37 104/262/81
f 99/248/3 6/15/85 98/247/36
f 112/284/74 9/21/72 103/258/6
f 113/286/83 17/41/40 19/47/39
f 19/47/39 20/49/67 111/279/17
f 50/128/33 26/64/32 105/264/43
f 27/66/30 106/267/30 26/64/32
f 26/64/32 106/267/30 105/264/43
f 28/69/29 106/267/30 27/66/30
f 106/267/30 28/69/29 107/269/45
f 51/130/47 107/269/45 28/69/29
f 107/269/45 51/130/47 95/238/47
f 52/132/48 95/238/47 51/130/47
f 95/238/47 52/132/48 96/240/49
f 53/135/50 96/240/49 52/132/48
f 96/240/49 53/135/50 108/272/51
f 14/32/55 116/294/52 15/35/53
f 15/35/53 116/294/52 115/292/54
f 13/30/56 117/297/56 14/32/55
f 14/32/55 117/297/56 116/294/52
f 12/28/27 118/299/38 13/30/56
f 13/30/56 118/299/38 117/297/56
f 11/25/26 101/253/26 12/28/27
f 12/28/27 101/253/26 118/299/38
f 10/23/24 102/255/59 11/25/26
f 11/25/26 102/255/59 101/253/26
f 102/255/59 10/23/24 114/290/23
f 6/15/85 119/301/62 7/17/62
f 119/301/62 6/15/85 99/248/3
f 58/145/63 97/243/63 20/49/67
f 20/49/67 97/243/63 111/279/17
f 59/148/78 97/243/63 58/145/63
f 97/243/63 59/148/78 109/274/65
f 109/274/65 59/148/78 110/276/18
f 8/20/73 103/258/6 9/21/72
f 103/258/6 8/20/73 120/303/66
f 7/17/62 120/303/66 8/20/73
f 120/303/66 7/17/62 119/301/62
f 92/233/14 86/218/14 76/191/14
f 86/218/14 85/215/14 76/191/14
f 105/265/86 76/192/86 85/216/86
f 76/192/86 105/265/86 102/256/86
f 106/268/9 102/257/9 105/266/9
f 102/257/9 106/268/9 101/254/9
f 101/254/9 106/268/9 118/300/9
f 106/268/9 107/270/9 118/300/9
f 118/300/9 107/270/9 117/298/9
f 107/270/9 95/239/9 117/298/9
f 116/295/9 117/298/9 95/239/9
f 116/295/9 95/239/9 96/241/9
f 90/228/62 116/296/62 96/242/62
f 96/242/62 88/222/62 90/228/62
f 73/184/14 75/189/14 88/223/14
f 88/223/14 75/189/14 90/229/14
f 87/220/14 75/189/14 73/184/14
f 75/189/14 87/220/14 91/231/14
f 91/231/14 86/218/14 92/233/14
f 86/218/14 91/231/14 87/220/14
f 81/203/14 77/194/14 78/196/14
f 77/194/14 81/203/14 82/206/14
f 78/196/14 94/237/14 93/235/14
f 94/237/14 78/196/14 77/194/14
f 93/235/14 80/200/14 79/197/14
f 80/200/14 93/235/14 94/237/14
f 110/277/61 80/201/61 103/259/61
f 80/201/61 110/277/61 79/198/61
f 110/278/9 103/260/9 109/275/9
f 103/260/9 120/304/9 109/275/9
f 109/275/9 120/304/9 97/244/9
f 120/304/9 119/302/9 97/244/9
f 119/302/9 99/249/9 111/280/9
f 119/302/9 111/280/9 97/244/9
f 111/281/56 82/207/56 81/204/56
f 82/207/56 111/281/56 99/250/56
f 121/306/87 83/211/83 122/309/87
f 83/211/83 121/306/87 113/286/83
f 70/178/9 122/310/9 83/210/9
f 122/310/9 70/178/9 123/312/9
f 104/262/81 123/313/69 70/179/81
f 123/313/69 104/262/81 124/315/69
f 121/307/14 104/263/14 113/287/14
f 104/263/14 121/307/14 124/316/14
f 126/321/88 125/318/88 115/292/54
f 115/292/54 89/225/54 126/321/88
f 126/322/9 74/186/9 127/324/9
f 74/186/9 126/322/9 89/226/9
f 108/272/51 127/325/80 74/187/51
f 127/325/80 108/272/51 128/327/80
f 128/328/14 108/273/14 125/319/14
f 108/273/14 115/293/14 125/319/14
f 70/179/81 1/2/1 71/180/1
f 1/2/1 70/179/81 135/347/37
f 71/180/1 134/344/3 82/208/3
f 71/180/1 1/2/1 134/344/3
f 129/329/4 80/202/6 131/335/6
f 132/338/18 79/199/18 136/348/19
f 137/349/16 133/341/17 84/213/16
f 133/341/17 137/349/16 81/205/17
f 137/349/16 16/38/40 83/211/83
f 16/38/40 137/349/16 84/213/16
