# Blender 3.4.0
# www.blender.org
mtllib rock1.mtl
o rock1
v -234.068787 4.005442 83.854599
v -238.579895 26.503849 99.770790
v -251.745270 12.659060 84.060219
v -255.720428 13.553374 96.422256
v -226.971420 21.727682 95.835640
v -254.071411 5.883467 95.029648
v -248.395248 14.968813 82.206451
v -245.094208 1.376154 100.371513
v -236.646347 27.289152 88.609383
v -234.744873 14.384295 78.604996
v -225.979507 5.632584 96.581940
v -233.224579 0.647270 97.565102
v -242.249207 25.443935 84.203445
v -253.303604 24.141172 92.210594
v -255.422653 14.142692 97.942162
v -231.824295 0.916932 86.615959
v -233.741592 25.270691 98.925079
v -249.163345 0.697237 83.026192
v -227.462433 19.506811 85.775208
v -251.528885 -0.021330 93.085335
v -252.559372 0.787799 92.448959
v -225.698486 17.904091 85.933556
v -246.515625 16.234840 104.021713
v -249.170303 5.115252 80.339279
v -240.514481 24.125927 101.004723
v -254.549088 21.561039 87.130463
v -227.809265 0.953482 93.697113
v -253.377441 25.001406 87.928818
v -239.514359 1.337953 82.375549
v -243.603073 22.329399 100.444794
v -224.757004 11.798060 95.502251
v -241.603088 20.083004 102.151886
v -250.265198 1.018045 83.695580
v -236.289886 15.086634 78.482552
v -230.520447 19.762342 99.737076
v -241.975891 7.800662 78.353790
v -252.869064 25.342466 90.829437
v -240.589081 1.886869 103.899200
v -229.627655 0.242059 88.430641
v -250.290146 5.761279 81.091911
v -239.715729 0.484670 102.050308
v -226.925034 15.430818 82.809189
v -252.607330 17.451433 84.203201
v -247.648468 14.637692 104.016937
v -224.430710 15.328753 95.825317
v -243.445374 25.959230 84.726746
v -226.619232 5.657112 97.826035
v -247.890915 19.414251 83.441261
v -231.837982 15.468728 80.645386
v -239.391037 0.118761 83.616501
v -238.955582 27.957188 97.278267
v -232.992935 0.715105 86.021744
v -239.212860 17.428265 80.155487
v -251.912201 0.494582 94.815041
v -244.563461 26.809425 95.833878
v -228.135101 0.883705 88.915649
v -243.540390 10.406219 104.719269
v -252.263611 13.797297 83.395943
v -249.164536 7.175921 80.203514
v -237.497498 18.933939 81.019470
v -241.467514 0.139052 101.614449
v -230.037506 22.547581 98.823616
v -238.842880 19.467009 80.909050
v -235.383789 25.280537 99.907356
v -233.975952 0.110144 97.089455
v -251.943939 12.093338 83.388672
v -225.938522 7.010840 98.223083
v -240.365921 0.567143 82.628746
v -253.868973 24.551268 90.650787
v -227.383240 21.167839 87.571991
v -251.088501 14.291321 82.735954
v -243.262207 7.668524 104.407005
v -230.373474 6.110198 101.325859
v -231.883759 24.840010 93.293365
v -255.785599 15.564798 96.940117
v -239.972565 4.477899 104.439194
v -230.281708 6.942191 101.595963
v -242.049850 0.503959 102.167870
v -242.951263 8.070176 78.441742
v -255.011765 22.630102 88.371857
v -245.480331 11.714125 104.476402
v -225.010269 16.537750 87.859650
v -252.855087 11.083940 87.409088
v -226.339981 13.301134 84.140266
v -239.952652 2.554601 104.373047
v -226.206116 15.466752 83.822571
v -228.428314 0.286671 92.462585
v -246.303574 26.686378 93.460571
v -232.753769 0.167294 88.097725
v -236.182693 26.828403 87.750275
v -241.189468 20.825041 102.279152
v -243.123596 25.128460 83.916656
v -253.309143 14.640966 99.934509
v -237.983978 27.553492 98.675926
v -253.774643 24.140244 87.059128
v -253.440735 3.445648 93.991058
v -228.920715 0.909843 88.023842
v -252.973618 9.011415 89.003548
v -232.540863 1.287203 86.447403
v -235.097107 27.025900 89.122528
v -253.379883 5.574400 95.901779
v -244.982391 11.943453 80.096687
v -235.654785 0.011135 85.997307
v -239.155777 27.323582 98.912659
v -251.120773 11.606973 81.913849
v -226.788254 13.975474 83.008270
v -226.664856 20.290615 96.726311
v -242.915894 19.470152 102.881454
v -237.890656 16.847244 102.085564
v -230.207458 24.132475 88.342682
v -224.053589 16.501230 94.575417
v -250.175400 13.979165 82.684464
v -249.777176 2.637515 81.933800
v -255.057968 15.813726 98.516609
v -228.281158 23.000677 89.593369
v -245.980576 14.789167 104.463562
v -254.302872 24.089598 88.643333
v -255.471710 18.290649 92.861343
v -238.254288 12.436229 78.415588
v -243.755753 21.144020 101.300064
v -234.142746 20.521479 83.720863
v -227.609833 0.850436 92.045647
v -250.062622 0.066056 85.282715
v -249.022919 0.208153 83.672989
v -245.007401 0.563460 99.703476
v -240.833755 7.861438 78.702179
vn 0.3294 -0.3369 -0.8820
vn 0.4222 -0.3906 -0.8180
vn 0.3126 -0.4951 -0.8107
vn 0.7370 0.6379 0.2234
vn 0.8290 0.3970 -0.3938
vn 0.7183 0.5989 -0.3542
vn -0.6527 0.2085 -0.7284
vn -0.2006 0.0051 -0.9797
vn -0.4307 0.0531 -0.9009
vn -0.6998 -0.3458 0.6251
vn -0.3674 -0.1775 0.9130
vn -0.6033 -0.1195 0.7885
vn 0.2909 0.4883 0.8227
vn -0.0998 0.1877 0.9771
vn 0.4271 0.1660 0.8888
vn -0.0425 -0.9513 0.3054
vn -0.3461 -0.9371 0.0448
vn 0.1802 -0.9574 0.2256
vn -0.7268 0.2789 0.6277
vn -0.3094 0.5812 0.7527
vn -0.4100 0.5565 0.7226
vn 0.3172 0.5909 -0.7417
vn 0.1429 0.6835 -0.7159
vn 0.2661 0.7843 -0.5604
vn 0.3991 -0.7553 0.5198
vn 0.4856 -0.4714 0.7362
vn 0.2279 -0.8379 0.4959
vn -0.9871 -0.1588 0.0202
vn -0.9532 -0.1481 -0.2635
vn -0.9582 -0.2788 0.0645
vn 0.1322 -0.9704 -0.2022
vn -0.9618 0.2077 -0.1783
vn -0.9171 -0.2190 -0.3332
vn -0.9900 -0.0336 -0.1371
vn -0.6045 0.6090 0.5135
vn -0.5451 -0.4416 0.7127
vn -0.3641 -0.2303 0.9024
vn -0.6026 -0.6760 0.4242
vn 0.0325 0.0165 0.9993
vn 0.1416 0.0121 0.9899
vn 0.0862 0.9703 -0.2260
vn -0.1877 0.9822 0.0035
vn -0.0037 0.9920 0.1260
vn 0.4750 0.7694 0.4271
vn 0.4925 0.8665 0.0819
vn 0.3923 0.4503 -0.8021
vn 0.4584 0.5913 -0.6635
vn 0.6749 -0.1930 -0.7122
vn 0.7472 -0.5878 -0.3103
vn 0.9866 -0.1601 0.0327
vn 0.9171 -0.3672 0.1552
vn 0.7377 0.3122 0.5986
vn 0.5342 0.4773 0.6977
vn 0.8235 -0.5645 -0.0561
vn 0.3412 -0.9365 0.0803
vn 0.1085 -0.9796 -0.1694
vn 0.2447 -0.9180 -0.3122
vn -0.1346 0.8566 -0.4982
vn -0.7745 0.5982 0.2055
vn -0.9700 0.1438 0.1959
vn -0.4612 0.8403 -0.2849
vn 0.6285 -0.5584 0.5415
vn 0.8127 -0.2023 0.5465
vn 0.8532 0.0581 0.5183
vn 0.4625 -0.0671 0.8841
vn 0.3563 0.0887 -0.9301
vn -0.2749 0.2768 -0.9208
vn -0.1677 0.3650 -0.9158
vn -0.9384 -0.2883 0.1904
vn -0.8366 -0.1688 0.5212
vn 0.0533 -0.2525 -0.9661
vn 0.0955 -0.7216 -0.6857
vn -0.3608 -0.3037 -0.8818
vn -0.7680 -0.4855 -0.4176
vn -0.8478 -0.5239 -0.0822
vn 0.2129 0.8832 0.4179
vn -0.0017 0.5818 0.8133
vn -0.1908 0.4836 0.8542
vn -0.2816 -0.6741 -0.6828
vn 0.6858 0.7197 -0.1078
vn 0.4836 0.7769 -0.4031
vn -0.4441 -0.8779 -0.1791
vn 0.9759 0.1836 0.1181
vn 0.5756 0.2368 -0.7827
vn 0.9103 -0.2176 -0.3521
vn -0.0541 0.1345 0.9894
vn -0.4789 0.0376 0.8771
vn 0.2331 0.1760 0.9564
vn -0.5298 -0.4355 -0.7277
vn -0.7998 -0.1400 -0.5836
vn 0.0446 0.4741 0.8793
vn -0.8751 0.0379 -0.4824
vn -0.6675 -0.2823 -0.6890
vn -0.5596 0.1960 -0.8053
vn -0.5925 0.5099 -0.6237
vn -0.1390 0.5204 -0.8425
vn 0.6369 -0.6982 0.3268
vn -0.8331 0.5484 -0.0723
vn 0.5928 -0.6143 -0.5209
vn 0.1390 -0.9196 -0.3676
vn -0.2071 -0.9039 -0.3743
vn -0.3639 0.8315 0.4199
vn 0.9831 0.0412 -0.1784
vn 0.8875 0.0858 -0.4527
vn -0.0694 0.0683 -0.9952
vn 0.1049 0.4571 -0.8832
vn -0.4316 0.8833 0.1831
vn -0.1730 -0.5720 0.8018
vn 0.0976 -0.3941 0.9139
vn 0.5113 -0.5666 -0.6462
vn 0.0995 -0.7220 -0.6847
vn -0.9138 0.2499 -0.3201
vn -0.3246 -0.7116 0.6232
vn -0.4393 -0.6686 0.6000
vn -0.2637 0.2914 -0.9196
vn -0.3841 0.2228 -0.8960
vn -0.8821 -0.0811 -0.4641
vn -0.2782 0.4190 0.8644
vn -0.3327 0.3102 -0.8906
vn 0.3759 0.9126 -0.1608
vn 0.2909 -0.6977 -0.6547
vn 0.0494 0.3407 -0.9389
vn 0.2343 0.5493 -0.8021
vn -0.2245 0.7896 0.5710
vn -0.2768 -0.1051 -0.9552
vn -0.0059 0.2265 0.9740
vt 0.393099 0.315492
vt 0.134632 0.016479
vt 0.189742 0.327845
vt 0.133273 0.337495
vt 0.277951 0.120456
vt 0.280539 0.032344
vt 0.275853 0.359503
vt 0.228989 0.045526
vt 0.291648 0.225735
vt 0.080705 0.162029
vt 0.198935 0.407871
vt 0.382603 0.240561
vt 0.392042 0.362032
vt 0.062521 0.063255
vt 0.342317 0.155408
vt 0.159297 0.439376
vt 0.018385 0.339775
vt 0.355548 0.053776
vt 0.080796 0.380731
vt 0.013127 0.254103
vt 0.283306 0.021509
vt 0.413388 0.340081
vt 0.070023 0.138578
vt 0.208963 0.008617
vt 0.224131 0.337030
vt 0.284390 0.331477
vt 0.190891 0.133053
vt 0.443216 0.198479
vt 0.285928 0.431745
vt 0.188624 0.063928
vt 0.196730 0.066369
vt 0.301892 0.427811
vt 0.085587 0.262036
vt 0.286894 0.296606
vt 0.121040 0.319165
vt 0.249576 0.169699
vt 0.338305 0.090857
vt 0.032674 0.096441
vt 0.424308 0.385368
vt 0.083226 0.411611
vt 0.352376 0.329370
vt 0.098741 0.309207
vt 0.348548 0.364977
vt 0.114636 0.291854
vt 0.274909 0.330655
vt 0.198527 0.126716
vt 0.374292 0.236043
vt 0.191255 0.293512
vt 0.334487 0.279005
vt 0.086998 0.391877
vt 0.098575 0.008104
vt 0.119816 0.167356
vt 0.053506 0.128297
vt 0.278760 0.292003
vt 0.230738 0.142624
vt 0.098320 0.024546
vt 0.440542 0.233919
vt 0.315895 0.452527
vt 0.311682 0.115214
vt 0.263866 0.203375
vt 0.078200 0.253106
vt 0.242297 0.268012
vt 0.324023 0.360035
vt 0.151419 0.433920
vt 0.007172 0.061769
vt 0.228862 0.199363
vt 0.394658 0.352803
vt 0.297207 0.194526
vt 0.404493 0.233834
vt 0.125485 0.144402
vt 0.184346 0.347829
vt 0.400618 0.342902
vt 0.197149 0.031429
vt 0.079690 0.140582
vt 0.356650 0.216224
vt 0.189804 0.051615
vt 0.021184 0.154467
vt 0.084732 0.350188
vt 0.144661 0.356480
vt 0.421390 0.418852
vt 0.042163 0.128100
vt 0.103567 0.224826
vt 0.287478 0.121721
vt 0.264074 0.229672
vt 0.287095 0.281943
vt 0.369252 0.205773
vt 0.110462 0.024436
vt 0.194763 0.313095
vt 0.256021 0.337318
vt 0.360062 0.202885
vt 0.156141 0.329604
vt 0.214248 0.327988
vt 0.068763 0.065722
vt 0.273131 0.124256
vt 0.384030 0.349442
vt 0.229822 0.209894
vt 0.345578 0.333509
vt 0.133687 0.150037
vt 0.357839 0.065086
vt 0.078085 0.392934
vt 0.277102 0.416783
vt 0.273048 0.227332
vt 0.104599 0.207130
vt 0.025646 0.032187
vt 0.194160 0.199640
vt 0.236248 0.376478
vt 0.293338 0.027924
vt 0.126897 0.186040
vt 0.193400 0.205809
vt 0.113044 0.019144
vt 0.104656 0.156639
vt 0.329315 0.277610
vt 0.344508 0.081607
vt 0.091812 0.234027
vt 0.312085 0.414783
vt 0.267187 0.096394
vt 0.332326 0.443185
vt 0.092016 0.004767
vt 0.126700 0.173283
vt 0.317187 0.444067
vt 0.039746 0.104018
vt 0.132799 0.373121
vt 0.074511 0.126392
vt 0.230517 0.028649
vt 0.389504 0.140523
vt 0.202499 0.414724
vt 0.117221 0.295999
vt 0.333301 0.158421
vt 0.152591 0.441954
vt 0.032351 0.256575
vt 0.191255 0.338646
vt 0.258449 0.153770
vt 0.356853 0.090888
vt 0.078784 0.419021
vt 0.213169 0.054194
vt 0.435425 0.341528
vt 0.421725 0.427100
vt 0.048768 0.133341
vt 0.252403 0.086462
vt 0.199732 0.018095
vt 0.209463 0.404811
vt 0.015568 0.191529
vt 0.224630 0.038838
vt 0.315099 0.249751
vt 0.097077 0.135194
vt 0.183352 0.335638
vt 0.127564 0.345353
vt 0.269431 0.135413
vt 0.271491 0.250726
vt 0.441411 0.246020
vt 0.327164 0.451570
vt 0.223329 0.300510
vt 0.285269 0.352106
vt 0.106486 0.286525
vt 0.141139 0.271011
vt 0.430060 0.159825
vt 0.248572 0.411830
vt 0.316164 0.368626
vt 0.286550 0.135420
vt 0.278453 0.230738
vt 0.281270 0.315309
vt 0.209288 0.138841
vt 0.295109 0.016564
vt 0.018476 0.267085
vt 0.263686 0.402642
vt 0.088387 0.253327
vt 0.355062 0.079362
vt 0.074118 0.407709
vt 0.313591 0.053800
vt 0.360452 0.251260
vt 0.098775 0.300403
vt 0.395752 0.191981
vt 0.033909 0.108047
vt 0.423186 0.396897
vt 0.191723 0.116562
vt 0.188151 0.128429
vt 0.136925 0.030096
vt 0.078535 0.155199
vt 0.340949 0.280894
s 1
usemtl M_AncientRuins_Rocks
f 126/179/1 1/1/2 29/41/3
f 5/7/4 22/32/5 70/101/6
f 105/149/7 79/112/8 59/85/9
f 101/142/10 81/114/11 93/130/12
f 64/91/13 91/127/14 35/48/15
f 61/87/16 20/30/17 65/93/18
f 114/164/19 120/171/20 30/42/21
f 121/172/22 13/15/23 90/125/24
f 12/14/25 73/104/26 41/56/27
f 4/6/28 98/139/29 96/135/30
f 65/93/18 20/30/17 103/145/31
f 80/113/32 83/116/33 118/169/34
f 114/164/19 30/42/21 14/17/35
f 8/10/36 72/103/37 54/77/38
f 35/48/15 57/82/39 76/108/40
f 9/11/41 88/122/42 51/71/43
f 17/25/44 5/7/4 74/106/45
f 49/69/46 121/172/22 19/28/47
f 106/150/48 1/1/2 126/179/1
f 56/80/49 31/43/50 11/13/51
f 107/152/52 62/88/53 35/48/15
f 56/80/49 11/13/51 122/174/54
f 87/121/55 89/123/56 39/53/57
f 9/11/41 46/64/58 88/122/42
f 69/99/59 80/113/32 75/107/60
f 46/64/58 28/40/61 88/122/42
f 47/65/62 73/104/26 12/14/25
f 67/96/63 45/62/64 77/109/65
f 10/12/66 106/150/48 126/179/1
f 79/112/8 102/144/67 53/75/68
f 4/6/28 6/8/69 15/21/70
f 69/99/59 75/107/60 114/163/19
f 36/49/71 68/97/72 24/34/73
f 98/139/29 33/46/74 21/31/75
f 17/25/44 74/106/45 94/131/76
f 2/4/77 25/35/78 64/91/13
f 24/34/73 68/97/72 18/26/79
f 74/106/45 5/7/4 115/165/80
f 90/125/24 110/156/81 121/172/22
f 123/175/82 20/30/17 21/31/75
f 61/87/16 54/76/38 20/30/17
f 111/158/83 22/32/5 5/7/4
f 45/62/64 107/152/52 35/48/15
f 20/30/17 54/76/38 21/31/75
f 4/6/28 96/135/30 6/8/69
f 42/58/84 19/29/47 22/32/5
f 56/80/49 84/117/85 31/43/50
f 116/166/86 44/61/87 81/114/11
f 109/155/88 57/82/39 35/48/15
f 24/34/73 113/161/89 40/54/90
f 105/149/7 59/85/9 40/54/90
f 57/82/39 108/154/91 116/166/86
f 26/37/92 58/83/93 83/116/33
f 43/60/94 95/132/95 92/128/96
f 47/65/62 12/14/25 27/38/97
f 87/121/55 65/93/18 89/123/56
f 80/113/32 69/99/59 117/167/98
f 95/132/95 43/60/94 26/36/92
f 1/1/2 52/72/99 29/41/3
f 68/98/72 50/70/100 124/176/101
f 14/17/35 30/42/21 55/78/102
f 30/42/21 25/35/78 55/78/102
f 111/158/83 82/115/103 22/32/5
f 86/120/104 22/32/5 82/115/103
f 64/91/13 25/35/78 91/127/14
f 30/42/21 91/127/14 25/35/78
f 33/46/74 123/175/82 21/31/75
f 113/161/89 24/34/73 18/26/79
f 119/170/105 10/12/66 126/179/1
f 63/90/106 13/15/23 121/172/22
f 77/109/65 45/62/64 35/48/15
f 119/170/105 126/179/1 36/49/71
f 126/179/1 29/41/3 36/49/71
f 14/19/35 55/79/102 37/50/107
f 28/40/61 69/100/59 37/50/107
f 8/10/36 38/52/108 72/103/37
f 41/56/27 73/104/26 85/118/109
f 1/1/2 106/150/48 97/136/110
f 97/136/110 16/22/111 1/1/2
f 98/139/29 40/55/90 33/46/74
f 66/94/112 105/148/7 40/55/90
f 41/56/27 38/51/108 78/110/113
f 125/177/114 54/76/38 61/87/16
f 82/115/103 84/117/85 86/120/104
f 10/12/66 49/69/46 106/150/48
f 43/60/94 92/128/96 48/68/115
f 58/83/93 112/159/116 3/5/117
f 44/61/87 23/33/118 114/164/19
f 93/130/12 81/114/11 44/61/87
f 45/63/64 111/158/83 107/153/52
f 45/63/64 67/95/63 31/43/50
f 90/126/24 13/16/23 46/64/58
f 44/61/87 114/164/19 93/130/12
f 114/163/19 75/107/60 15/21/70
f 47/67/62 27/39/97 11/13/51
f 31/43/50 67/95/63 11/13/51
f 7/9/119 48/68/115 92/128/96
f 105/148/7 66/94/112 112/159/116
f 49/69/46 19/28/47 42/57/84
f 49/69/46 42/57/84 106/150/48
f 68/98/72 52/74/99 50/70/100
f 103/145/31 123/175/82 50/70/100
f 88/122/42 55/79/102 51/71/43
f 94/131/76 100/141/120 51/71/43
f 50/70/100 52/74/99 103/145/31
f 52/73/99 1/2/2 99/140/121
f 79/112/8 53/75/68 119/170/105
f 34/47/122 53/75/68 60/86/123
f 54/77/38 72/103/37 101/142/10
f 54/76/38 101/143/10 96/135/30
f 55/79/102 104/146/124 51/71/43
f 55/78/102 25/35/78 104/147/124
f 97/137/110 106/151/48 56/80/49
f 56/81/49 87/121/55 39/53/57
f 57/82/39 72/103/37 76/108/40
f 116/166/86 81/114/11 57/82/39
f 43/59/94 58/83/93 26/37/92
f 43/60/94 71/102/125 58/84/93
f 24/34/73 59/85/9 79/112/8
f 59/85/9 24/34/73 40/54/90
f 49/69/46 10/12/66 60/86/123
f 34/47/122 60/86/123 10/12/66
f 65/93/18 41/56/27 61/87/16
f 41/56/27 78/110/113 61/87/16
f 17/25/44 62/89/53 5/7/4
f 62/88/53 64/91/13 35/48/15
f 63/90/106 60/86/123 53/75/68
f 7/9/119 92/128/96 53/75/68
f 62/89/53 17/25/44 64/92/13
f 94/131/76 64/92/13 17/25/44
f 56/80/49 106/151/48 84/117/85
f 98/139/29 66/94/112 40/55/90
f 112/159/116 66/94/112 3/5/117
f 47/66/62 67/96/63 73/105/26
f 67/95/63 47/67/62 11/13/51
f 36/49/71 29/41/3 68/97/72
f 29/41/3 52/72/99 68/97/72
f 27/38/97 12/14/25 65/93/18
f 65/93/18 12/14/25 41/56/27
f 69/99/59 114/163/19 14/18/35
f 69/100/59 14/19/35 37/50/107
f 70/101/6 22/32/5 19/29/47
f 121/172/22 110/156/81 19/28/47
f 43/60/94 48/68/115 71/102/125
f 112/160/116 48/68/115 7/9/119
f 72/103/37 81/114/11 101/142/10
f 39/53/57 89/123/56 16/23/111
f 89/124/56 52/73/99 99/140/121
f 63/90/106 53/75/68 92/128/96
f 92/128/96 13/15/23 63/90/106
f 66/94/112 98/139/29 3/5/117
f 58/83/93 3/5/117 83/116/33
f 77/109/65 35/48/15 76/108/40
f 110/157/81 90/126/24 100/141/120
f 51/71/43 100/141/120 9/11/41
f 75/107/60 80/113/32 118/169/34
f 15/21/70 75/107/60 4/6/28
f 77/109/65 76/108/40 85/119/109
f 76/108/40 72/103/37 85/119/109
f 85/119/109 73/105/26 77/109/65
f 73/105/26 67/96/63 77/109/65
f 78/111/113 38/52/108 8/10/36
f 78/110/113 125/177/114 61/87/16
f 36/49/71 79/112/8 119/170/105
f 79/112/8 36/49/71 24/34/73
f 95/133/95 26/37/92 80/113/32
f 26/37/92 83/116/33 80/113/32
f 72/103/37 57/82/39 81/114/11
f 82/115/103 31/43/50 84/117/85
f 4/6/28 83/116/33 98/139/29
f 83/116/33 3/5/117 98/139/29
f 106/151/48 86/120/104 84/117/85
f 109/155/88 108/154/91 57/82/39
f 85/118/109 38/51/108 41/56/27
f 85/119/109 72/103/37 38/52/108
f 22/32/5 86/120/104 42/58/84
f 42/58/84 86/120/104 106/151/48
f 87/121/55 27/38/97 65/93/18
f 122/173/54 87/121/55 56/81/49
f 37/50/107 88/122/42 28/40/61
f 55/79/102 88/122/42 37/50/107
f 65/93/18 103/145/31 89/123/56
f 89/123/56 103/145/31 52/74/99
f 46/64/58 9/11/41 90/126/24
f 100/141/120 90/126/24 9/11/41
f 35/48/15 91/127/14 109/155/88
f 91/127/14 30/42/21 120/171/20
f 92/129/96 28/40/61 46/64/58
f 92/129/96 46/64/58 13/16/23
f 114/164/19 15/20/70 93/130/12
f 15/20/70 101/142/10 93/130/12
f 104/146/124 94/131/76 51/71/43
f 2/3/77 64/92/13 94/131/76
f 92/129/96 95/134/95 28/40/61
f 95/133/95 80/113/32 117/167/98
f 54/76/38 96/135/30 21/31/75
f 96/135/30 98/139/29 21/31/75
f 16/23/111 97/138/110 39/53/57
f 39/53/57 97/138/110 56/81/49
f 32/44/126 91/127/14 120/171/20
f 99/140/121 16/24/111 89/124/56
f 16/24/111 99/140/121 1/2/2
f 94/131/76 74/106/45 100/141/120
f 74/106/45 115/165/80 100/141/120
f 6/8/69 101/143/10 15/21/70
f 96/135/30 101/143/10 6/8/69
f 7/9/119 53/75/68 102/144/67
f 105/149/7 102/144/67 79/112/8
f 124/176/101 50/70/100 123/175/82
f 33/46/74 124/176/101 123/175/82
f 2/3/77 94/131/76 104/146/124
f 25/35/78 2/4/77 104/147/124
f 102/144/67 105/149/7 7/9/119
f 7/9/119 105/149/7 112/160/116
f 111/158/83 5/7/4 107/153/52
f 5/7/4 62/89/53 107/153/52
f 108/154/91 32/44/126 120/171/20
f 32/44/126 109/155/88 91/127/14
f 108/154/91 109/155/88 32/44/126
f 110/157/81 100/141/120 115/165/80
f 110/157/81 70/101/6 19/29/47
f 82/115/103 111/158/83 31/43/50
f 111/158/83 45/63/64 31/43/50
f 58/84/93 71/102/125 112/160/116
f 71/102/125 48/68/115 112/160/116
f 103/145/31 20/30/17 123/175/82
f 113/161/89 18/26/79 33/45/74
f 33/46/74 40/55/90 113/162/89
f 5/7/4 70/101/6 115/165/80
f 110/157/81 115/165/80 70/101/6
f 116/166/86 108/154/91 23/33/118
f 116/166/86 23/33/118 44/61/87
f 117/168/98 69/100/59 28/40/61
f 95/134/95 117/168/98 28/40/61
f 4/6/28 118/169/34 83/116/33
f 75/107/60 118/169/34 4/6/28
f 34/47/122 10/12/66 119/170/105
f 53/75/68 34/47/122 119/170/105
f 108/154/91 120/171/20 23/33/118
f 114/164/19 23/33/118 120/171/20
f 60/86/123 121/172/22 49/69/46
f 63/90/106 121/172/22 60/86/123
f 122/173/54 27/38/97 87/121/55
f 11/13/51 27/39/97 122/174/54
f 18/27/79 124/176/101 33/46/74
f 18/27/79 68/98/72 124/176/101
f 125/178/114 8/10/36 54/77/38
f 78/111/113 8/10/36 125/178/114
