# Blender 3.4.0
# www.blender.org
mtllib rock3.mtl
o rock3
v -252.257935 12.754097 19.256994
v -260.961670 11.624468 -4.853736
v -222.986694 0.352804 -0.446709
v -247.210052 36.314987 -5.899477
v -227.302002 8.151241 -22.898674
v -253.842773 4.325301 3.259996
v -232.204361 0.085642 1.102729
v -240.657608 38.003010 5.052392
v -230.803192 8.330008 21.046446
v -229.059982 0.663996 -15.197009
v -247.313782 0.276849 -11.177712
v -245.904327 25.617794 19.785530
v -231.359756 37.095539 7.044147
v -256.359009 25.355175 -11.943801
v -215.299759 9.655847 -6.394060
v -259.251892 16.792671 8.109802
v -225.594589 30.670664 -7.565688
v -240.289062 2.598878 -20.603029
v -213.456787 13.644025 7.920742
v -258.049683 25.167984 -4.939766
v -214.840652 11.822239 -4.968168
v -239.094910 12.940669 22.691494
v -243.687317 22.032032 -21.698971
v -220.397415 13.705563 17.652489
v -236.905609 5.057912 -23.057402
v -221.792831 32.074234 -0.364976
v -238.413040 0.596544 15.735886
v -228.209778 35.210384 2.458020
v -258.907227 7.873799 -4.557742
v -250.462448 1.347232 -11.725618
v -234.439453 0.879687 -18.062355
v -253.992523 0.563394 -3.644315
v -213.786819 18.130280 7.396436
v -238.419724 37.549042 8.778421
v -241.214111 0.556652 -18.114740
v -247.558136 1.216256 13.604059
v -218.585632 28.125950 2.114059
v -256.456726 27.849422 -9.562478
v -247.171021 2.188841 14.657257
v -223.694656 0.504687 1.838056
v -261.635345 18.427889 1.471915
v -233.053879 0.062116 11.667346
v -238.615494 24.926767 22.003468
v -239.760620 31.937752 -15.046249
v -245.766830 23.629330 21.106277
v -252.102966 1.308537 -9.755118
v -258.394775 16.626781 5.722052
v -219.982178 1.460670 -3.928455
v -233.263733 3.598578 18.644276
v -239.435883 38.370079 4.660474
v -250.399551 0.933600 6.633386
v -238.358200 2.111373 -20.772470
v -214.201965 18.542789 8.821509
v -246.130829 0.235976 12.248634
v -259.768524 21.861368 -4.246956
v -223.283920 10.453006 -19.178635
v -226.880615 23.689060 18.100531
v -250.902740 0.488870 -9.288143
v -225.354202 33.414894 4.603918
v -231.255951 27.099377 -18.774387
v -227.804459 34.423141 0.275356
v -252.343201 16.637348 20.491451
v -241.056610 23.009531 -22.230263
v -213.454437 10.140152 1.964503
v -259.234619 19.437037 4.601585
v -228.186844 31.331057 -9.946111
v -232.920349 0.773122 13.972174
v -233.011902 7.607006 -24.148338
v -230.917068 22.649050 20.499704
v -253.137573 18.434168 19.592623
v -260.710052 16.434425 3.700943
v -225.957489 11.105161 -22.543955
v -246.123718 35.884476 -7.749303
v -224.989929 9.194953 -21.616899
v -254.113525 15.886769 19.133795
v -224.586288 27.862350 10.591199
v -235.902191 30.564775 -17.628273
v -244.430115 35.519527 2.588087
v -227.406433 33.777908 3.875954
v -258.444641 14.131217 5.618315
v -227.754364 9.488483 -23.685116
v -234.007385 36.637440 10.610323
v -254.109589 30.363251 -7.791973
v -233.404526 27.804228 20.467323
v -259.852539 17.165016 -7.193019
v -255.331787 22.295246 6.593287
v -252.745621 3.639136 3.709671
v -250.839081 0.169211 0.636457
v -261.616821 13.965796 -3.920144
v -249.906555 0.231962 3.865781
v -250.038116 1.389908 2.060022
v -227.553802 34.208893 6.263916
v -231.950577 28.589338 -18.178030
v -227.169739 32.290749 7.945854
v -252.699310 1.012580 0.884804
v -220.720398 31.016867 1.753827
v -262.086304 17.414122 0.484878
v -224.842224 10.925900 18.965406
v -239.940460 36.732857 9.002080
v -227.871948 0.941728 -15.954783
v -222.765472 33.270756 1.002701
v -238.267517 11.680030 -24.358431
v -246.695374 14.008219 21.640390
v -215.698456 6.609660 -4.067823
v -232.825256 9.565558 -24.534454
v -243.258453 37.262260 0.057848
v -248.031769 0.742221 -12.657611
v -214.991486 6.584818 -2.509959
v -238.672913 14.421834 -24.369822
v -218.145538 3.245300 -2.054990
v -219.816818 8.483370 -12.765126
v -229.998108 20.009577 -21.071365
v -229.202667 35.930489 5.208694
v -246.985687 0.130568 0.440919
v -249.915009 8.219365 -13.907990
v -257.321747 20.098900 7.306913
v -237.527527 0.088589 13.640062
v -227.642578 1.561376 -17.107382
v -243.954163 1.573525 -17.167034
v -231.500000 1.854854 -18.665411
v -243.392853 25.796150 20.815977
v -221.104446 16.902910 18.497845
v -240.097061 1.048277 -19.529232
v -249.610931 33.950775 -7.808086
v -226.219940 7.202588 -21.417294
v -212.897842 11.665075 2.158285
v -223.260757 13.757138 19.190016
v -245.211914 33.679920 -10.642104
v -213.303421 16.491499 8.204388
v -233.847427 29.718731 -18.299562
v -257.350983 5.384300 -5.680408
v -231.698029 34.241062 11.335923
v -231.479370 6.827846 20.788206
v -252.001129 2.273080 4.506077
v -241.841217 19.448719 -22.973402
v -250.987305 13.553303 20.673622
vn 0.3095 0.1475 0.9394
vn -0.0014 0.2944 0.9557
vn -0.0298 -0.1798 0.9832
vn -0.6965 0.4011 0.5950
vn -0.6515 0.7016 0.2886
vn -0.6803 0.7328 0.0160
vn 0.9031 0.1932 -0.3835
vn 0.8352 0.1161 -0.5375
vn 0.6847 0.5610 -0.4653
vn 0.5365 0.4978 0.6815
vn 0.6119 0.6092 0.5045
vn 0.5626 0.6430 0.5196
vn -0.4018 0.9128 -0.0735
vn 0.5071 0.4220 -0.7515
vn -0.0126 0.9996 -0.0261
vn 0.2249 0.6992 -0.6786
vn -0.1333 0.8876 -0.4409
vn 0.4216 -0.8626 0.2796
vn 0.5204 -0.5156 0.6807
vn 0.3459 -0.8450 0.4077
vn 0.8573 0.5115 -0.0595
vn 0.9329 0.3589 -0.0283
vn -0.3422 0.6627 -0.6661
vn -0.1931 0.7597 -0.6209
vn -0.7311 0.5882 -0.3458
vn 0.5789 -0.5441 -0.6073
vn 0.7651 -0.5100 -0.3930
vn 0.4277 -0.7372 -0.5231
vn -0.6964 -0.4988 0.5160
vn -0.8412 -0.1332 0.5241
vn -0.8629 -0.4956 0.0991
vn -0.9908 0.0768 0.1115
vn -0.8012 -0.5983 -0.0093
vn -0.6684 -0.4741 0.5732
vn -0.1685 -0.1261 0.9776
vn -0.3030 0.2990 0.9049
vn 0.2337 -0.5131 0.8259
vn -0.3219 -0.5753 0.7519
vn -0.0594 -0.8067 0.5879
vn 0.1813 -0.6681 0.7216
vn 0.4014 -0.4739 -0.7838
vn 0.1970 -0.7476 -0.6343
vn 0.0888 -0.4070 -0.9091
vn -0.1042 -0.4607 -0.8814
vn -0.0030 -0.6891 -0.7246
vn 0.3953 0.9036 0.1649
vn 0.5960 0.7944 -0.1169
vn 0.2539 0.5272 0.8109
vn -0.1355 0.9015 0.4111
vn -0.2230 0.5661 0.7936
vn -0.6369 -0.1873 -0.7478
vn -0.8346 0.0159 -0.5506
vn -0.6961 0.2862 -0.6585
vn -0.8808 0.3715 0.2935
vn -0.7970 0.5870 0.1422
vn 0.3077 -0.9481 0.0802
vn 0.2911 -0.9111 -0.2918
vn 0.5532 -0.8232 -0.1274
vn 0.8562 -0.5096 -0.0845
vn 0.8353 -0.5145 0.1938
vn 0.6718 -0.7166 0.1875
vn -0.9955 0.0229 0.0916
vn -0.9264 0.3380 -0.1657
vn -0.9797 -0.0962 -0.1760
vn -0.9057 -0.3282 -0.2685
vn 0.8221 0.5340 0.1974
vn 0.5882 0.8070 0.0527
vn -0.3424 -0.1266 -0.9310
vn -0.4481 -0.4032 -0.7979
vn 0.0128 -0.9998 -0.0121
vn -0.0882 -0.9901 -0.1089
vn -0.2109 -0.9112 -0.3539
vn 0.8582 -0.3441 0.3808
vn 0.6605 -0.3401 0.6694
vn 0.8124 0.4152 0.4095
vn 0.8739 -0.1125 -0.4729
vn 0.9971 -0.0513 -0.0565
vn 0.8058 -0.3291 -0.4923
vn 0.3514 -0.1187 0.9287
vn 0.2756 -0.1842 0.9435
vn -0.3641 -0.3117 0.8777
vn -0.1325 0.4376 -0.8893
vn -0.6640 0.4047 0.6287
vn -0.4285 0.0390 0.9027
vn -0.8061 -0.1231 0.5789
vn 0.4052 0.8220 -0.4002
vn 0.4998 0.5922 -0.6321
vn 0.9518 0.1159 0.2839
vn 0.5682 0.2140 0.7946
vn 0.0810 -0.0034 -0.9967
vn 0.3412 -0.0747 -0.9370
vn 0.7419 0.6417 0.1947
vn 0.3599 0.8597 0.3625
vn 0.5072 0.8617 0.0138
vn 0.2805 0.9400 -0.1943
vn -0.1863 -0.9583 0.2167
vn 0.0284 -0.9881 0.1511
vn -0.5612 -0.8276 0.0124
vn -0.5319 -0.7318 0.4260
vn -0.6340 -0.6271 -0.4526
vn -0.8171 -0.4992 -0.2882
vn -0.5743 -0.4781 -0.6645
vn -0.4131 -0.7409 -0.5296
vn -0.2780 -0.9402 -0.1968
vn 0.2030 0.8356 0.5105
vn 0.0837 -0.9894 -0.1188
vn 0.1023 -0.9185 -0.3820
vn -0.8014 0.5912 -0.0906
vn -0.1400 -0.9221 0.3606
vn -0.5043 0.6390 0.5808
vn -0.4776 0.7571 0.4457
vn -0.1869 -0.7891 -0.5851
vn -0.4961 -0.7263 0.4758
vn -0.6536 -0.7170 0.2422
vn -0.4413 -0.8890 -0.1223
vn 0.7042 0.6245 -0.3379
vn -0.4815 0.2933 -0.8259
vn -0.9392 0.1776 0.2939
vn -0.8678 -0.3770 0.3237
vn 0.1450 -0.9772 0.1549
vn 0.0701 0.8299 -0.5534
vn -0.5187 -0.5482 -0.6561
vn -0.3787 0.9235 0.0610
vn -0.6907 0.6468 0.3234
vn -0.4495 0.8664 0.2176
vn -0.7463 -0.6099 0.2664
vn -0.4365 -0.8810 0.1823
vn -0.5092 0.7389 -0.4413
vn 0.3200 0.3223 -0.8909
vn 0.6050 0.2067 -0.7690
vn 0.6106 0.6400 0.4664
vn 0.5271 0.8379 0.1416
vn -0.3939 0.0553 -0.9175
vn -0.1614 0.0919 -0.9826
vn 0.7348 -0.2207 -0.6414
vn -0.0444 -0.9987 0.0251
vt 0.386590 0.905924
vt 0.429802 0.848742
vt 0.112918 0.780963
vt 0.246903 0.889613
vt 0.120505 0.611506
vt 0.375757 0.746075
vt 0.196779 0.769320
vt 0.053225 0.977508
vt 0.304972 0.849425
vt 0.141504 0.568777
vt 0.127317 0.762772
vt 0.349685 0.681458
vt 0.516678 0.921936
vt 0.199440 0.631218
vt 0.237976 0.543717
vt 0.396065 0.917727
vt 0.395016 0.993882
vt 0.241643 0.675958
vt 0.101921 0.719517
vt 0.197165 0.962272
vt 0.175859 0.836099
vt 0.316419 0.558999
vt 0.316178 0.925159
vt 0.429641 0.523828
vt 0.040537 0.903181
vt 0.030068 0.636692
vt 0.345660 0.631115
vt 0.316987 0.806783
vt 0.236808 0.964830
vt 0.326606 0.565870
vt 0.470900 0.904833
vt 0.140209 0.912425
vt 0.373901 0.687728
vt 0.009716 0.578077
vt 0.531865 0.982884
vt 0.049843 0.926167
vt 0.437845 0.565750
vt 0.097779 0.499387
vt 0.525838 0.859733
vt 0.116234 0.692679
vt 0.254773 0.867958
vt 0.047798 0.832564
vt 0.251204 0.532408
vt 0.227615 0.805002
vt 0.227572 0.617853
vt 0.227927 0.493212
vt 0.271292 0.823716
vt 0.367389 0.622777
vt 0.103275 0.758240
vt 0.337503 0.660981
vt 0.248106 0.589952
vt 0.133974 0.466882
vt 0.495069 0.822531
vt 0.372269 0.834183
vt 0.416742 0.584594
vt 0.347423 0.811016
vt 0.209061 0.977021
vt 0.194695 0.836009
vt 0.491618 0.829176
vt 0.113692 0.601833
vt 0.275152 0.928710
vt 0.100080 0.533787
vt 0.425506 0.944957
vt 0.200622 0.930302
vt 0.227990 0.709835
vt 0.406964 0.912423
vt 0.238697 0.812883
vt 0.241797 0.789796
vt 0.304085 0.924579
vt 0.267411 0.566017
vt 0.125166 0.635128
vt 0.529014 0.893549
vt 0.065747 0.513871
vt 0.126999 0.755816
vt 0.171899 0.475541
vt 0.332338 0.830556
vt 0.034384 0.912992
vt 0.251941 0.611570
vt 0.370926 0.628482
vt 0.135778 0.477868
vt 0.242567 0.945528
vt 0.315484 0.482596
vt 0.439397 0.677653
vt 0.469192 0.991976
vt 0.009793 0.698160
vt 0.241884 0.805500
vt 0.241415 0.523223
vt 0.098377 0.678575
vt 0.461323 0.590069
vt 0.158672 0.982220
vt 0.407664 0.460282
vt 0.125301 0.684598
vt 0.413880 0.863565
vt 0.142471 0.926778
vt 0.062550 0.652217
vt 0.321116 0.603209
vt 0.293215 0.939757
vt 0.257995 0.790825
vt 0.434925 0.506450
vt 0.178253 0.663109
vt 0.089745 0.527848
vt 0.058154 0.948589
vt 0.459609 0.969357
vt 0.403151 0.865438
vt 0.383757 0.940626
vt 0.289179 0.921350
vt 0.318204 0.460567
vt 0.068161 0.987071
vt 0.203052 0.759624
vt 0.307445 0.467820
vt 0.055213 0.992181
vt 0.380891 0.925366
vt 0.410262 0.852036
vt 0.443146 0.630171
vt 0.054060 0.678667
vt 0.232941 0.684499
vt 0.185354 0.955326
vt 0.344494 0.708990
vt 0.105390 0.687810
vt 0.304974 0.909132
vt 0.061442 0.976244
vt 0.088370 0.737302
vt 0.351984 0.790586
vt 0.430673 0.975744
vt 0.018598 0.741267
vt 0.138874 0.798673
vt 0.229623 0.918616
vt 0.265351 0.763154
vt 0.310499 0.843975
vt 0.299524 0.819091
vt 0.200777 0.493079
vt 0.250483 0.902949
vt 0.182129 0.486748
vt 0.320024 0.821644
vt 0.308960 0.822941
vt 0.191680 0.490262
vt 0.095144 0.695469
vt 0.168428 0.979083
vt 0.417023 0.461024
vt 0.081954 0.692524
vt 0.296091 0.828880
vt 0.433742 0.578525
vt 0.271041 0.923657
vt 0.023304 0.552969
vt 0.527767 0.955102
vt 0.331286 0.668053
vt 0.198954 0.638556
vt 0.112469 0.659737
vt 0.447427 0.569825
vt 0.083899 0.928998
vt 0.442498 0.877893
vt 0.301332 0.570648
vt 0.067119 0.952201
vt 0.158295 0.764069
vt 0.362343 0.709488
vt 0.246655 0.545307
vt 0.041062 0.844787
vt 0.302402 0.578853
vt 0.096937 0.929381
vt 0.279157 0.579051
vt 0.108600 0.638918
vt 0.306471 0.520355
vt 0.118566 0.979846
vt 0.105568 0.704245
vt 0.188923 0.509151
vt 0.080931 0.848948
vt 0.250646 0.771038
vt 0.313549 0.944958
vt 0.104638 0.509445
vt 0.259759 0.486614
vt 0.203074 0.643841
vt 0.009164 0.969227
vt 0.040064 0.876676
vt 0.254711 0.575815
vt 0.017689 0.948881
vt 0.221950 0.633121
vt 0.017262 0.795789
vt 0.405102 0.929332
vt 0.242201 0.661215
vt 0.392635 0.685389
vt 0.515448 0.990078
vt 0.031709 0.899629
vt 0.251116 0.599121
vt 0.371978 0.766625
vt 0.227495 0.871000
vt 0.216846 0.775537
vt 0.292961 0.466814
vt 0.044688 0.983268
vt 0.329576 0.603459
vt 0.520894 0.970535
vt 0.219258 0.896771
vt 0.218757 0.747382
vt 0.359762 0.627907
vt 0.426377 0.454636
vt 0.175865 0.968946
vt 0.232218 0.672272
vt 0.253422 0.851542
vt 0.076017 0.724408
vt 0.043935 0.517230
vt 0.520816 0.913816
vt 0.317996 0.837505
vt 0.125771 0.920074
vt 0.430405 0.859034
s 1
usemtl M_AncientRuins_Rocks.001
f 69/103/1 43/63/2 22/31/3
f 65/98/4 78/118/5 83/123/6
f 21/30/7 56/82/8 17/24/9
f 57/85/10 76/115/11 132/198/12
f 83/123/6 78/118/5 4/6/13
f 60/91/14 17/24/9 56/82/8
f 50/74/15 130/196/16 73/109/17
f 40/60/18 98/144/19 67/101/20
f 21/30/7 37/55/21 33/48/22
f 128/191/23 44/64/24 38/58/25
f 125/187/26 104/152/27 118/170/28
f 6/9/29 71/106/30 29/41/31
f 16/23/32 134/201/33 1/1/34
f 43/63/2 103/151/35 22/31/3
f 43/63/2 45/66/36 103/151/35
f 133/200/37 39/59/38 27/39/39
f 98/144/19 49/73/40 67/101/20
f 5/8/41 120/175/42 68/102/43
f 25/36/44 120/175/42 52/77/45
f 50/74/15 13/19/46 28/40/47
f 84/125/48 34/49/49 121/177/50
f 115/166/51 85/126/52 14/21/53
f 41/61/54 65/97/4 20/29/55
f 3/5/56 100/147/57 48/71/58
f 108/158/59 64/96/60 110/160/61
f 97/143/62 55/81/63 89/132/64
f 29/41/31 71/106/30 2/4/65
f 17/24/9 37/55/21 21/30/7
f 92/137/66 113/164/67 13/19/46
f 102/150/68 18/25/69 115/166/51
f 7/10/70 11/15/71 35/51/72
f 19/26/73 24/34/74 40/60/18
f 76/114/11 57/83/10 53/79/75
f 14/20/53 85/127/52 55/81/63
f 15/22/76 21/30/7 126/189/77
f 15/22/76 111/162/78 21/30/7
f 127/190/79 22/31/3 9/13/80
f 133/200/37 22/31/3 136/203/81
f 63/94/82 38/58/25 44/64/24
f 45/66/36 70/104/83 62/93/84
f 16/23/32 75/112/85 70/105/83
f 130/195/16 60/90/14 63/94/82
f 66/99/86 93/139/87 130/194/16
f 129/193/88 122/180/89 24/33/74
f 127/190/79 9/13/80 98/145/19
f 105/153/90 81/121/91 68/102/43
f 96/142/92 76/114/11 53/79/75
f 59/88/93 101/148/94 61/92/95
f 67/101/20 49/73/40 27/38/39
f 27/38/39 54/80/96 117/169/97
f 28/40/47 130/196/16 50/74/15
f 61/92/95 101/148/94 66/100/86
f 32/47/98 95/141/99 29/41/31
f 46/67/100 32/47/98 131/197/101
f 119/174/102 35/51/72 107/156/103
f 46/67/100 58/86/104 32/47/98
f 13/19/46 132/198/12 92/137/66
f 34/49/49 82/122/105 13/19/46
f 10/14/106 35/51/72 31/45/107
f 3/5/56 10/14/106 100/147/57
f 16/23/32 70/105/83 116/168/108
f 11/15/71 88/131/109 32/46/98
f 88/130/109 95/141/99 32/47/98
f 24/33/74 19/27/73 129/193/88
f 34/49/49 13/19/46 50/74/15
f 12/18/110 99/146/111 78/118/5
f 31/45/107 123/183/112 52/78/45
f 119/173/102 18/25/69 123/182/112
f 1/1/34 134/201/33 36/54/113
f 54/80/96 51/75/114 90/133/115
f 96/142/92 53/79/75 37/55/21
f 37/55/21 17/24/9 26/37/116
f 23/32/117 14/21/53 38/58/25
f 39/59/38 136/203/81 1/2/34
f 45/66/36 62/93/84 103/151/35
f 64/95/60 40/60/18 110/161/61
f 47/69/118 65/97/4 71/106/30
f 6/9/29 80/120/119 71/106/30
f 3/5/56 42/62/120 7/10/70
f 117/169/97 54/80/96 7/10/70
f 43/63/2 69/103/1 84/124/48
f 43/63/2 84/124/48 121/178/50
f 77/117/121 63/94/82 44/64/24
f 130/196/16 77/116/121 73/109/17
f 45/66/36 12/16/110 70/104/83
f 12/18/110 121/179/50 99/146/111
f 46/67/100 30/44/122 58/86/104
f 2/4/65 30/44/122 131/197/101
f 4/7/13 106/154/123 73/109/17
f 86/128/124 47/68/118 116/167/108
f 80/120/119 134/201/33 16/23/32
f 15/22/76 104/152/27 111/162/78
f 15/22/76 126/189/77 108/158/59
f 49/72/40 133/200/37 27/39/39
f 98/144/19 133/199/37 49/73/40
f 50/74/15 8/11/125 34/49/49
f 106/154/123 50/74/15 73/109/17
f 87/129/126 91/135/127 134/201/33
f 80/120/119 87/129/126 134/201/33
f 18/25/69 52/77/45 123/182/112
f 52/77/45 18/25/69 25/36/44
f 129/193/88 53/79/75 122/180/89
f 37/55/21 53/79/75 33/48/22
f 54/80/96 36/52/113 51/75/114
f 27/38/39 36/52/113 54/80/96
f 55/81/63 41/61/54 20/29/55
f 38/56/25 83/123/6 124/184/128
f 112/163/129 72/108/130 81/121/91
f 122/181/89 69/103/1 22/31/3
f 122/180/89 53/79/75 57/83/10
f 11/15/71 32/46/98 58/87/104
f 11/15/71 107/156/103 35/51/72
f 59/89/93 76/114/11 96/142/92
f 132/198/12 76/115/11 94/140/131
f 63/94/82 60/90/14 112/163/129
f 112/163/129 60/90/14 72/108/130
f 129/193/88 19/27/73 126/189/77
f 19/26/73 40/60/18 64/95/60
f 122/181/89 57/84/10 69/103/1
f 130/196/16 28/40/47 61/92/95
f 79/119/132 61/92/95 28/40/47
f 1/1/34 75/112/85 16/23/32
f 1/2/34 136/203/81 75/113/85
f 135/202/133 63/94/82 109/159/134
f 23/32/117 38/58/25 63/94/82
f 108/158/59 126/189/77 64/96/60
f 19/27/73 64/96/60 126/189/77
f 86/128/124 65/98/4 47/68/118
f 86/128/124 78/118/5 65/98/4
f 93/139/87 66/99/86 17/24/9
f 17/24/9 66/99/86 101/149/94
f 57/84/10 84/124/48 69/103/1
f 67/101/20 27/38/39 42/62/120
f 40/60/18 67/101/20 42/62/120
f 102/150/68 68/102/43 25/36/44
f 68/102/43 120/175/42 25/36/44
f 71/106/30 97/143/62 2/4/65
f 71/106/30 65/97/4 41/61/54
f 74/110/135 72/107/130 56/82/8
f 72/107/130 60/91/14 56/82/8
f 121/178/50 45/66/36 43/63/2
f 45/66/36 121/178/50 12/16/110
f 44/65/24 73/109/17 77/116/121
f 81/121/91 72/108/130 74/111/135
f 125/187/26 111/162/78 104/152/27
f 70/104/83 75/113/85 62/93/84
f 136/203/81 62/93/84 75/113/85
f 65/98/4 83/123/6 20/28/55
f 20/28/55 83/123/6 38/56/25
f 77/117/121 130/195/16 63/94/82
f 99/146/111 8/12/125 78/118/5
f 4/6/13 78/118/5 106/155/123
f 79/119/132 59/88/93 61/92/95
f 76/115/11 59/88/93 94/140/131
f 55/81/63 38/57/25 14/20/53
f 55/81/63 20/29/55 38/57/25
f 80/120/119 47/69/118 71/106/30
f 47/69/118 80/120/119 16/23/32
f 5/8/41 81/121/91 74/111/135
f 5/8/41 68/102/43 81/121/91
f 34/49/49 84/125/48 82/122/105
f 82/122/105 132/198/12 13/19/46
f 85/126/52 30/42/122 2/3/65
f 55/81/63 85/127/52 89/132/64
f 12/18/110 78/118/5 86/128/124
f 30/42/122 115/166/51 107/157/103
f 30/42/122 85/126/52 115/166/51
f 87/129/126 80/120/119 6/9/29
f 88/130/109 87/129/126 95/141/99
f 135/202/133 102/150/68 14/21/53
f 102/150/68 115/166/51 14/21/53
f 114/165/136 88/131/109 11/15/71
f 91/135/127 87/129/126 88/130/109
f 89/132/64 85/127/52 2/4/65
f 89/132/64 2/4/65 97/143/62
f 54/80/96 90/133/115 7/10/70
f 134/201/33 91/135/127 90/134/115
f 7/10/70 114/165/136 11/15/71
f 7/10/70 90/133/115 114/165/136
f 132/198/12 94/140/131 92/137/66
f 92/137/66 79/119/132 113/164/67
f 93/138/87 60/90/14 130/195/16
f 17/24/9 60/91/14 93/139/87
f 79/119/132 94/140/131 59/88/93
f 79/119/132 92/137/66 94/140/131
f 95/141/99 6/9/29 29/41/31
f 87/129/126 6/9/29 95/141/99
f 37/55/21 26/37/116 96/142/92
f 17/24/9 101/149/94 26/37/116
f 71/106/30 41/61/54 97/143/62
f 55/81/63 97/143/62 41/61/54
f 98/145/19 24/35/74 127/190/79
f 24/34/74 98/144/19 40/60/18
f 99/146/111 121/179/50 34/50/49
f 8/12/125 99/146/111 34/50/49
f 31/45/107 100/147/57 10/14/106
f 52/78/45 120/176/42 31/45/107
f 96/142/92 26/37/116 101/149/94
f 101/149/94 59/89/93 96/142/92
f 7/10/70 35/51/72 10/14/106
f 7/10/70 10/14/106 3/5/56
f 25/36/44 18/25/69 102/150/68
f 22/31/3 103/151/35 136/203/81
f 103/151/35 62/93/84 136/203/81
f 104/152/27 48/70/58 118/170/28
f 108/158/59 110/160/61 48/70/58
f 112/163/129 81/121/91 105/153/90
f 105/153/90 68/102/43 102/150/68
f 8/11/125 50/74/15 106/154/123
f 78/118/5 8/12/125 106/155/123
f 11/15/71 58/87/104 107/156/103
f 58/87/104 30/43/122 107/156/103
f 48/70/58 104/152/27 108/158/59
f 15/22/76 108/158/59 104/152/27
f 109/159/134 102/150/68 135/202/133
f 109/159/134 105/153/90 102/150/68
f 124/184/128 83/123/6 4/6/13
f 110/161/61 40/60/18 3/5/56
f 48/71/58 110/161/61 3/5/56
f 74/110/135 111/162/78 125/187/26
f 111/162/78 74/110/135 56/82/8
f 109/159/134 112/163/129 105/153/90
f 63/94/82 112/163/129 109/159/134
f 111/162/78 56/82/8 21/30/7
f 113/164/67 28/40/47 13/19/46
f 79/119/132 28/40/47 113/164/67
f 114/165/136 91/136/127 88/131/109
f 91/136/127 114/165/136 90/133/115
f 40/60/18 42/62/120 3/5/56
f 116/168/108 70/105/83 12/17/110
f 116/167/108 12/18/110 86/128/124
f 42/62/120 117/169/97 7/10/70
f 27/38/39 117/169/97 42/62/120
f 131/197/101 32/47/98 29/41/31
f 2/4/65 131/197/101 29/41/31
f 118/171/28 48/71/58 100/147/57
f 120/176/42 100/147/57 31/45/107
f 107/157/103 115/166/51 119/173/102
f 119/173/102 115/166/51 18/25/69
f 5/8/41 118/172/28 120/175/42
f 120/176/42 118/171/28 100/147/57
f 24/35/74 122/181/89 127/190/79
f 123/183/112 35/51/72 119/174/102
f 31/45/107 35/51/72 123/183/112
f 73/109/17 124/186/128 4/7/13
f 44/65/24 128/192/23 73/109/17
f 5/8/41 125/188/26 118/172/28
f 5/8/41 74/111/135 125/188/26
f 21/30/7 33/48/22 126/189/77
f 122/181/89 22/31/3 127/190/79
f 38/58/25 124/185/128 128/191/23
f 124/186/128 73/109/17 128/192/23
f 33/48/22 129/193/88 126/189/77
f 33/48/22 53/79/75 129/193/88
f 27/39/39 39/59/38 36/53/113
f 39/59/38 1/2/34 36/53/113
f 61/92/95 66/100/86 130/196/16
f 30/44/122 46/67/100 131/197/101
f 132/198/12 84/125/48 57/85/10
f 84/125/48 132/198/12 82/122/105
f 9/13/80 22/31/3 133/200/37
f 133/200/37 98/145/19 9/13/80
f 51/76/114 36/54/113 134/201/33
f 90/134/115 51/76/114 134/201/33
f 14/21/53 23/32/117 135/202/133
f 23/32/117 63/94/82 135/202/133
f 136/203/81 39/59/38 133/200/37
f 47/69/118 16/23/32 116/168/108
